<svg width="55" height="55" viewBox="0 0 55 55" fill="none" xmlns="http://www.w3.org/2000/svg">
<path opacity="0.5" d="M51.8 0.130859H11.3C9.86783 0.130859 8.49432 0.699786 7.48162 1.71248C6.46893 2.72518 5.9 4.09869 5.9 5.53086V13.6309H0.5V19.0309H5.9V24.4309H0.5V29.8309H5.9V35.2309H0.5V40.6309H5.9V48.7309C5.9 50.163 6.46893 51.5365 7.48162 52.5492C8.49432 53.5619 9.86783 54.1309 11.3 54.1309H51.8C52.5161 54.1309 53.2028 53.8464 53.7092 53.34C54.2155 52.8337 54.5 52.1469 54.5 51.4309V2.83086C54.5 2.11477 54.2155 1.42802 53.7092 0.921671C53.2028 0.415323 52.5161 0.130859 51.8 0.130859ZM30.2 8.22816C34.6496 8.22816 38.3 11.8759 38.3 16.3282C38.2936 18.4747 37.4382 20.5315 35.9207 22.0496C34.4031 23.5677 32.3465 24.4237 30.2 24.4309C25.7531 24.4309 22.1 20.7778 22.1 16.3282C22.1 11.8759 25.7531 8.22816 30.2 8.22816ZM46.4 43.3309H14V41.3059C14 35.3146 21.3035 29.1559 30.2 29.1559C39.0965 29.1559 46.4 35.3146 46.4 41.3059V43.3309Z" fill="#8391A1"/>
</svg>
