<svg width="18" height="12" viewBox="0 0 18 12" fill="none" xmlns="http://www.w3.org/2000/svg">
<path d="M1.32773 7.82393C2.10408 4.09586 5.34949 1.44694 9.00016 1.44694C12.6497 1.44694 15.8951 4.09586 16.6726 7.82393C16.7034 7.97186 16.7917 8.1015 16.9181 8.18433C17.0444 8.26717 17.1985 8.2964 17.3465 8.2656C17.4944 8.23481 17.6241 8.14651 17.7069 8.02013C17.7897 7.89375 17.8189 7.73964 17.7882 7.59171C16.9037 3.35138 13.2041 0.308594 9.00016 0.308594C4.79626 0.308594 1.09665 3.35138 0.212154 7.59171C0.18136 7.73964 0.210593 7.89375 0.293424 8.02013C0.376254 8.14651 0.505897 8.23481 0.653831 8.2656C0.801766 8.2964 0.955874 8.26717 1.08225 8.18433C1.20864 8.1015 1.29694 7.97186 1.32773 7.82393ZM8.98877 3.72362C10.0454 3.72362 11.0588 4.14338 11.806 4.89056C12.5532 5.63775 12.973 6.65114 12.973 7.70782C12.973 8.76449 12.5532 9.77789 11.806 10.5251C11.0588 11.2723 10.0454 11.692 8.98877 11.692C7.9321 11.692 6.9187 11.2723 6.17152 10.5251C5.42434 9.77789 5.00457 8.76449 5.00457 7.70782C5.00457 6.65114 5.42434 5.63775 6.17152 4.89056C6.9187 4.14338 7.9321 3.72362 8.98877 3.72362Z" fill="#6A707C"/>
</svg>
