<svg width="26" height="26" viewBox="0 0 26 26" fill="none" xmlns="http://www.w3.org/2000/svg">
<path d="M6.4202 15.4651L5.59745 18.5365L2.59033 18.6001C1.69164 16.9333 1.18188 15.0262 1.18188 12.9995C1.18188 11.0398 1.65849 9.19171 2.50331 7.56445H2.50395L5.18114 8.05528L6.35391 10.7164C6.10845 11.432 5.97467 12.2002 5.97467 12.9995C5.97476 13.8671 6.1319 14.6982 6.4202 15.4651Z" fill="#FBBB00"/>
<path d="M24.6119 10.792C24.7476 11.5069 24.8184 12.2452 24.8184 12.9998C24.8184 13.8459 24.7294 14.6712 24.5599 15.4673C23.9846 18.1764 22.4814 20.542 20.3989 22.216L20.3983 22.2154L17.0262 22.0433L16.549 19.0641C17.9308 18.2537 19.0107 16.9855 19.5795 15.4673H13.26V10.792H19.6717H24.6119Z" fill="#518EF8"/>
<path d="M20.3981 22.2158L20.3988 22.2164C18.3735 23.8444 15.8007 24.8184 13.0001 24.8184C8.49942 24.8184 4.58645 22.3028 2.59033 18.6009L6.42021 15.4658C7.41824 18.1294 9.98773 20.0256 13.0001 20.0256C14.2949 20.0256 15.5079 19.6755 16.5488 19.0645L20.3981 22.2158Z" fill="#28B446"/>
<path d="M20.5437 3.90241L16.7151 7.03681C15.6379 6.36345 14.3644 5.97447 13.0002 5.97447C9.91965 5.97447 7.30211 7.95757 6.35407 10.7167L2.50406 7.56475H2.50342C4.47031 3.77255 8.43264 1.18164 13.0002 1.18164C15.8677 1.18164 18.4969 2.20308 20.5437 3.90241Z" fill="#F14336"/>
</svg>
