<svg width="20" height="20" viewBox="0 0 20 20" fill="none" xmlns="http://www.w3.org/2000/svg">
<path d="M7.43553 4.44199C7.68586 3.9802 8.05624 3.59458 8.50757 3.32586C8.9589 3.05713 9.47443 2.91528 9.9997 2.91528C10.525 2.91528 11.0405 3.05713 11.4918 3.32586C11.9432 3.59458 12.3135 3.9802 12.5639 4.44199C12.8701 4.11692 13.2678 3.89261 13.7044 3.7988C14.141 3.70499 14.5958 3.74612 15.0085 3.91672C15.4212 4.08732 15.7723 4.37933 16.0152 4.75405C16.2581 5.12876 16.3814 5.56846 16.3687 6.01485C16.356 6.46123 16.2079 6.89321 15.9441 7.25349C15.6802 7.61377 15.3131 7.88534 14.8913 8.03218C14.4696 8.17902 14.0132 8.1942 13.5827 8.0757C13.1521 7.95719 12.7677 7.71061 12.4805 7.36865C12.219 7.79123 11.8538 8.13998 11.4196 8.38179C10.9854 8.62359 10.4967 8.75045 9.9997 8.75032C9.50295 8.7504 9.0144 8.6236 8.58039 8.38195C8.14638 8.14029 7.78128 7.79179 7.5197 7.36949C7.23244 7.71134 6.84806 7.9578 6.41753 8.0762C5.987 8.19461 5.53065 8.17936 5.10898 8.03248C4.68731 7.88559 4.32025 7.61402 4.05645 7.25375C3.79266 6.89349 3.64459 6.46156 3.63188 6.01522C3.61918 5.56888 3.74243 5.12923 3.98531 4.75454C4.22818 4.37986 4.57921 4.08784 4.99183 3.91721C5.40446 3.74658 5.85921 3.70539 6.29578 3.79911C6.73235 3.89283 7.12929 4.11703 7.43553 4.44199ZM7.96387 5.39199C8.04983 5.71844 8.05981 6.06025 7.99303 6.39116C8.11509 6.82989 8.37748 7.21657 8.74009 7.49208C9.10269 7.76758 9.54555 7.91673 10.0009 7.91673C10.4563 7.91673 10.8992 7.76758 11.2618 7.49208C11.6244 7.21657 11.8868 6.82989 12.0089 6.39116C11.942 6.06002 11.9517 5.71797 12.0372 5.39115C11.9362 4.9261 11.679 4.50962 11.3085 4.21095C10.938 3.91228 10.4764 3.74941 10.0005 3.74941C9.52463 3.74941 9.06306 3.91228 8.69255 4.21095C8.32203 4.50962 8.06489 4.92693 7.96387 5.39199ZM7.10887 5.45115C6.99118 5.15116 6.77146 4.90228 6.48836 4.74833C6.20525 4.59438 5.87692 4.54522 5.56114 4.6095C5.24536 4.67378 4.96238 4.84739 4.76199 5.09976C4.56161 5.35214 4.45666 5.66711 4.46562 5.98924C4.47459 6.31137 4.59689 6.62001 4.811 6.86085C5.02511 7.10169 5.31731 7.25929 5.63618 7.30591C5.95504 7.35253 6.28013 7.28519 6.55423 7.11573C6.82834 6.94628 7.03388 6.68557 7.1347 6.37949C7.07656 6.07341 7.06784 5.75999 7.10887 5.45115ZM12.8664 6.37865C12.9671 6.68504 13.1727 6.94606 13.4469 7.11578C13.7212 7.28549 14.0465 7.35301 14.3656 7.30644C14.6848 7.25988 14.9773 7.10221 15.1916 6.86121C15.4059 6.62021 15.5283 6.31133 15.5373 5.98894C15.5463 5.66655 15.4412 5.35133 15.2407 5.09877C15.0401 4.84621 14.7568 4.67252 14.4408 4.60826C14.1247 4.544 13.7962 4.59331 13.5129 4.74749C13.2296 4.90168 13.0098 5.15085 12.8922 5.45115C12.9331 5.75972 12.9244 6.07285 12.8664 6.37865ZM4.12553 8.58115C4.4147 8.50449 4.68803 8.59949 4.87637 8.73615C4.95137 8.79032 5.0547 8.85699 5.18053 8.91782C5.27687 8.96774 5.34993 9.05326 5.38419 9.15621C5.41845 9.25916 5.4112 9.37141 5.36398 9.46909C5.31677 9.56678 5.23331 9.6422 5.13136 9.67931C5.0294 9.71642 4.917 9.7123 4.81803 9.66782C4.66712 9.59517 4.52294 9.50928 4.3872 9.41116C4.37368 9.4015 4.35879 9.39391 4.34303 9.38865L4.3372 9.38782C4.22484 9.41782 4.1134 9.45116 4.00303 9.48782L3.43137 9.67449C3.21818 9.7439 3.0255 9.86499 2.87049 10.027C2.71549 10.189 2.60299 10.3868 2.54303 10.6028L2.3072 12.3103C2.26053 12.6462 2.43803 12.8978 2.69053 12.9578C2.87664 13.0034 3.10248 13.0478 3.36803 13.0912C3.42209 13.0999 3.4739 13.1192 3.5205 13.148C3.56709 13.1768 3.60756 13.2145 3.6396 13.2589C3.67164 13.3033 3.69461 13.3536 3.70721 13.4069C3.71981 13.4602 3.72179 13.5154 3.71303 13.5695C3.70428 13.6236 3.68496 13.6754 3.65618 13.722C3.62741 13.7685 3.58974 13.809 3.54532 13.8411C3.5009 13.8731 3.45061 13.8961 3.39731 13.9087C3.34402 13.9213 3.28876 13.9232 3.2347 13.9145C2.9874 13.8751 2.74168 13.8265 2.49803 13.7687C1.7522 13.5912 1.3872 12.877 1.48137 12.1962L1.7247 10.4412L1.7297 10.4187C1.82096 10.0618 2.001 9.73391 2.25307 9.46538C2.50513 9.19685 2.82103 8.99645 3.17137 8.88282L3.7422 8.69532C3.86998 8.65366 3.99776 8.6156 4.12553 8.58115ZM15.983 8.58115C15.8544 8.54965 15.7203 8.54722 15.5905 8.57403C15.4608 8.60084 15.3387 8.65623 15.233 8.73615C15.158 8.79032 15.0547 8.85699 14.9289 8.91782C14.8325 8.96774 14.7595 9.05326 14.7252 9.15621C14.691 9.25916 14.6982 9.37141 14.7454 9.46909C14.7926 9.56678 14.8761 9.6422 14.978 9.67931C15.08 9.71642 15.1924 9.7123 15.2914 9.66782C15.4423 9.59517 15.5865 9.50928 15.7222 9.41116C15.7357 9.4015 15.7506 9.39391 15.7664 9.38865L15.7705 9.38782H15.7722C15.885 9.41727 15.9964 9.4506 16.1064 9.48782L16.678 9.67449C17.1164 9.81866 17.4489 10.1695 17.5664 10.6028L17.8022 12.3103C17.8489 12.6462 17.6722 12.8978 17.4189 12.9578C17.1948 13.0108 16.9688 13.0552 16.7414 13.0912C16.6322 13.1088 16.5345 13.1692 16.4698 13.2589C16.4051 13.3486 16.3787 13.4603 16.3964 13.5695C16.414 13.6787 16.4744 13.7764 16.5641 13.8411C16.6538 13.9058 16.7655 13.9322 16.8747 13.9145C17.1591 13.8673 17.4047 13.8187 17.6114 13.7687C18.3572 13.5912 18.7222 12.877 18.628 12.1962L18.3847 10.4412L18.3797 10.4187C18.2884 10.0618 18.1084 9.73391 17.8563 9.46538C17.6043 9.19685 17.2884 8.99645 16.938 8.88282L16.3672 8.69532C16.2405 8.65386 16.1118 8.6158 15.983 8.58115Z" fill="#50CE76"/>
<path d="M11.4928 9.93329C11.7919 9.73495 12.2094 9.59162 12.6403 9.71245C12.7703 9.74912 12.9 9.78884 13.0294 9.83162L13.8286 10.0941C14.2923 10.2447 14.7104 10.5101 15.0441 10.8656C15.3777 11.221 15.6161 11.6551 15.7369 12.1275L15.7428 12.15L16.0811 14.5966C16.2036 15.48 15.7311 16.3883 14.7861 16.6133C13.8278 16.8416 12.2761 17.0833 10.0003 17.0833C7.72528 17.0833 6.17278 16.8416 5.21444 16.6133C4.26944 16.3883 3.79694 15.48 3.91944 14.5966L4.25778 12.15L4.26361 12.1275C4.38449 11.6551 4.62284 11.221 4.95648 10.8656C5.29012 10.5101 5.70823 10.2447 6.17194 10.0941L6.97194 9.83162C7.10083 9.78884 7.23028 9.74912 7.36028 9.71245C7.79111 9.59079 8.20861 9.73495 8.50777 9.93329C8.82694 10.145 9.35194 10.405 10.0003 10.405C10.6486 10.405 11.1744 10.145 11.4928 9.93329ZM12.4136 10.5141C12.2953 10.4808 12.1303 10.5108 11.9536 10.6275C11.5561 10.8916 10.8703 11.2383 10.0003 11.2383C9.13028 11.2383 8.44444 10.8916 8.04694 10.6275C7.87111 10.5108 7.70528 10.4808 7.58694 10.5141C7.4675 10.5475 7.34916 10.5836 7.23194 10.6225L6.43194 10.8858C6.1055 10.9921 5.81067 11.178 5.5741 11.4268C5.33753 11.6756 5.16667 11.9794 5.07694 12.3108L4.74444 14.7108C4.66944 15.25 4.95528 15.6941 5.40778 15.8025C6.29694 16.015 7.78444 16.25 10.0003 16.25C12.2161 16.25 13.7036 16.015 14.5928 15.8025C15.0453 15.6941 15.3303 15.25 15.2561 14.7108L14.9236 12.3108C14.8339 11.9794 14.663 11.6756 14.4264 11.4268C14.1899 11.178 13.8951 10.9921 13.5686 10.8858L12.7686 10.6233C12.6514 10.5844 12.5331 10.5483 12.4136 10.515" fill="#50CE76"/>
</svg>
