<svg width="27" height="27" viewBox="0 0 27 27" fill="none" xmlns="http://www.w3.org/2000/svg">
<rect opacity="0.87" x="11.6694" y="9.10486" width="3.45251" height="8.63128" rx="1.72626" transform="rotate(135 11.6694 9.10486)" fill="#50CE76"/>
<rect opacity="0.75" x="9.18457" y="11.6508" width="3.45251" height="8.63128" rx="1.72626" transform="rotate(90 9.18457 11.6508)" fill="#50CE76"/>
<rect opacity="0.63" x="9.22852" y="15.2081" width="3.45251" height="8.63128" rx="1.72626" transform="rotate(45 9.22852 15.2081)" fill="#50CE76"/>
<rect opacity="0.51" x="11.7739" y="17.6927" width="3.45251" height="8.63128" rx="1.72626" fill="#50CE76"/>
<rect opacity="0.39" x="23.8779" y="21.3113" width="3.45251" height="8.63128" rx="1.72626" transform="rotate(135 23.8779 21.3113)" fill="#50CE76"/>
<rect opacity="0.27" x="26.4473" y="11.6508" width="3.45251" height="8.63128" rx="1.72626" transform="rotate(90 26.4473 11.6508)" fill="#50CE76"/>
<rect opacity="0.15" x="21.437" y="3.00165" width="3.45251" height="8.63128" rx="1.72626" transform="rotate(45 21.437 3.00165)" fill="#50CE76"/>
<rect x="11.7739" y="0.430176" width="3.45251" height="8.63128" rx="1.72626" fill="#50CE76"/>
</svg>
